# xmcd CD database file
#
# Track frame offsets:
#	150
#	17412
#	47392
#	62923
#	91070
#	117631
#	145072
#	162705
#	183993
#	219450
#
# Disc length: 3138 seconds
#
# Revision: 0
# Processed by: cddbd v1.5.2PL0 Copyright (c) Steve Scherf et al.
# Submitted via: CDex 1.51
#
DISCID=860c400a
DTITLE=Blues Punxs - Blue Or What?
DYEAR=2000
DGENRE=Blues
TTITLE0=Pride And Joy
TTITLE1=Where You Been Solong
TTITLE2=Mary Had A Little Lamb
TTITLE3=Heavy Love
TTITLE4=I Need You Tonight
TTITLE5=Chitlins Con Carnce
TTITLE6=If You Don't Start Drinking...
TTITLE7=Foxy Lady
TTITLE8=Texas Flood
TTITLE9=O Tell Me
EXTD=YEAR: 2000
EXTT0=
EXTT1=
EXTT2=
EXTT3=
EXTT4=
EXTT5=
EXTT6=
EXTT7=
EXTT8=
EXTT9=
PLAYORDER=
